<?xml version="1.0" encoding="UTF-8"?> <svg xmlns="http://www.w3.org/2000/svg" width="2200" height="1159" viewBox="0 0 2200 1159" fill="none"> <path d="M1713.5 1158C1711 1151.17 1698.5 1131 1670.5 1115C1642.5 1099 1608.17 1121.67 1594.5 1135C1573.49 1155.5 1508.5 1144.5 1474.5 1070.5C1440.5 996.499 1339.04 968.499 1323 996.499C1314.5 1011.33 1307.8 1049.5 1349 1083.5C1390.2 1117.5 1398.17 1047 1397 1007.5C1397 988.499 1387.4 926.899 1349 832.499C1310.6 738.099 1484 717.111 1594.5 735.999C1653 745.999 1807 775.599 1955 813.999C2103 852.399 2176.19 813.999 2189.5 735.999C2204.83 646.166 2211.9 460.599 2117.5 436.999C2023.1 413.399 1867.5 439.499 1801.5 455.499C1696.17 477.666 1464.9 515.699 1382.5 490.499C1300.1 465.299 1216.67 378.666 1193 339.999C1029.88 73.5 670.6 -4.10051 1 1.49949" stroke="#5593EB"></path> </svg> 