<?xml version="1.0" encoding="UTF-8"?> <svg xmlns="http://www.w3.org/2000/svg" width="2593" height="843" viewBox="0 0 2593 843" fill="none"> <path d="M112.619 1C99.1196 73 298.619 121 224.619 190C172.12 238.953 -54.3806 214.5 13.6196 413C39.4835 488.5 104.119 519.5 131.119 529.5C209.203 558.421 298.219 574.9 406.619 562.5C515.019 550.1 693.452 492.333 769.119 465C851.786 435 1040.62 379.7 1134.62 398.5C1228.62 417.3 1284.79 493.667 1301.12 529.5C1310.12 547 1325.42 591.8 1314.62 631C1301.12 680 1248.62 711.5 1268.12 778C1290.84 855.5 1361.12 852 1409.62 825C1452.59 801.077 1474.65 759.95 1500.62 715.5C1531 663.5 1558.29 646.333 1581.12 626C1722.08 495.5 2121.6 267.3 2592 398.5" stroke="#5593EB"></path> </svg> 