<?xml version="1.0" encoding="UTF-8"?> <svg xmlns="http://www.w3.org/2000/svg" width="2379" height="1317" viewBox="0 0 2379 1317" fill="none"> <path d="M2196.5 202.5C2096.86 165.757 1794.5 252.606 1507 202.5C1211.5 151 1127 66.3346 947.022 26.3401C785.022 -9.65941 726.522 -5.15911 774.022 26.3401C821.522 57.8392 751.022 70.3408 698.522 49.0047C629.574 20.9843 592.04 80.4732 573.522 107.84C528.322 174.64 535.022 266.674 544.022 304.34C559.553 369.34 621.422 467.94 615.022 538.34C608.622 608.74 340.688 546.674 207.522 506.84C106.022 476.479 -65.5783 480.84 28.0217 592.84C121.622 704.84 321.932 804.955 414.522 826.84C567.5 863 600.117 798.375 772.022 774.34C917.5 754 1264.65 763.315 1196.5 826.84C1000 1010 1403.5 1109.5 1820.5 1246C2124.99 1345.67 2215.17 1311.17 2378.5 1308.5" stroke="#5593EB"></path> </svg> 