<?xml version="1.0" encoding="UTF-8"?> <svg xmlns="http://www.w3.org/2000/svg" width="1410" height="422" viewBox="0 0 1410 422" fill="none"> <path d="M148.476 24.2148C28.8957 48.1613 1.00048 136.237 1.00037 185.219C1.00029 217.677 0.000358582 348.49 102.984 379.784C147.977 393.456 372.341 389.58 501.92 341.687C631.499 293.794 791.54 315.382 855.363 332.163C923.852 352.269 1092.92 397.471 1221.3 417.427C1349.68 437.382 1389.78 368.899 1393.78 332.163C1396.11 279.553 1441.41 114.779 1362.5 102.5C1189 75.5 1157.99 102.5 1108.5 102.5C902.5 102.5 855.363 82.0539 812 75.5C695.974 57.9638 581.407 7.06417 468.925 1.99178C411.934 -0.578232 268.057 0.26836 148.476 24.2148Z" stroke="#5593EB"></path> </svg> 